<svg width="85" height="85" fill="none" xmlns="http://www.w3.org/2000/svg"><circle cx="42.5" cy="42.5" r="42" stroke="#E0E0E0"/><circle cx="42.5" cy="42.5" r="30.5" fill="url(#paint0_linear_142:694)"/><path d="M27.75 42H42v2.375H27.75V42zm-2.375-5.937H37.25v2.374H25.375v-2.374z" fill="#fff"/><path d="M58.529 42.72l-3.563-8.313a1.187 1.187 0 00-1.09-.72h-3.563v-2.374a1.188 1.188 0 00-1.188-1.188h-19V32.5h17.813v14.91a4.742 4.742 0 00-2.207 2.903H38.27a4.75 4.75 0 100 2.374h7.462a4.727 4.727 0 009.163 0h2.544a1.187 1.187 0 001.187-1.187v-8.313c0-.16-.032-.32-.096-.467zM33.688 53.875a2.375 2.375 0 110-4.75 2.375 2.375 0 010 4.75zm16.625-17.813h2.779L55.638 42h-5.325v-5.938zm0 17.813a2.375 2.375 0 110-4.75 2.375 2.375 0 010 4.75zm5.937-3.563h-1.356a4.744 4.744 0 00-4.581-3.562v-2.375h5.937v5.938z" fill="#fff"/><defs><linearGradient id="paint0_linear_142:694" x1="12" y1="29.561" x2="73" y2="41.576" gradientUnits="userSpaceOnUse"><stop stop-color="#47A4BE"/><stop offset="1" stop-color="#70C2D9"/></linearGradient></defs></svg>