<svg width="161" height="77" fill="none" xmlns="http://www.w3.org/2000/svg"><path d="M9.263 46.76H.91V42.8h21.384v3.96h-8.352V68h-4.68V46.76zm40.664 17.316V68h-18.9V42.8h18.396v3.924H35.707v6.552h12.168v3.852H35.707v6.948h14.22zM75.959 68l-6.84-9.576L62.35 68h-5.328l9.36-12.852L57.527 42.8h5.292l6.444 8.964 6.372-8.964h5.076l-8.82 12.168L81.359 68h-5.4zm18.327-21.24h-8.352V42.8h21.384v3.96h-8.352V68h-4.68V46.76zm21.764-3.96h4.68V68h-4.68V42.8zm16.716 0h4.68v21.24h13.176V68h-17.856V42.8z" fill="#fff"/><path d="M46.307 34.368c0 .803.213 1.205.639 1.205.268 0 1.107-.694 2.519-2.08 1.423-1.4 2.555-2.562 3.394-3.487v2.044c-2.397 2.36-4.003 3.882-4.818 4.563-1.484 1.229-2.756 1.868-3.814 1.916-.536 0-.937-.237-1.205-.712-.268-.486-.401-1.107-.401-1.861s.34-2.525 1.022-5.311c.681-2.786 1.131-4.471 1.35-5.055.231-.584.42-.992.566-1.223.146-.231.328-.414.547-.548.22-.133.408-.237.566-.31.17-.085.426-.146.767-.182a23.441 23.441 0 011.752-.055c-1.923 6.156-2.884 9.855-2.884 11.096zm3.14-15.95c-.865 0-1.297-.439-1.297-1.315 0-.608.226-1.192.676-1.752.462-.572 1.004-.858 1.624-.858.62 0 1.083.122 1.387.365.304.244.456.615.456 1.114 0 .486-.292 1.016-.876 1.587-.572.572-1.229.858-1.97.858zm11.096 15.238c-1.315 1.533-2.635 2.732-3.96 3.596-1.327.851-2.325 1.277-2.994 1.277-.657 0-1.162-.128-1.515-.383a2.172 2.172 0 01-.784-.986c-.292-.754-.438-1.679-.438-2.774s.298-2.36.894-3.796a15.904 15.904 0 012.281-3.905 13.006 13.006 0 013.157-2.866c1.193-.766 2.245-1.15 3.158-1.15.912 0 1.8.128 2.664.384l2.428-8.67c.34-1.398.675-2.214 1.004-2.445.45-.328.906-.505 1.368-.529.475-.037.98-.055 1.515-.055h.639c-.049.414-.262 1.26-.639 2.537-.754 2.251-1.8 5.804-3.139 10.658-1.326 4.843-1.99 7.733-1.99 8.67 0 .45.043.754.128.912.086.158.244.237.475.237.243 0 .736-.353 1.478-1.058.755-.706 1.856-1.82 3.304-3.34v2.044l-.95.949c-.45.462-.784.803-1.003 1.022l-.968.949a16.21 16.21 0 01-1.003.967l-.913.821a14.06 14.06 0 01-.912.767c-.244.17-.505.347-.785.53-.523.34-.961.51-1.314.51-.998 0-1.497-.809-1.497-2.427 0-.779.104-1.594.31-2.446zm2.117-8.997c-.049-.17-.268-.329-.657-.475a2.748 2.748 0 00-1.059-.237c-1.046 0-2.062.48-3.048 1.442-.985.961-1.764 2.13-2.336 3.504-.572 1.363-.858 2.665-.858 3.906 0 1.545.5 2.317 1.497 2.317.779 0 1.752-.438 2.92-1.314 1.168-.888 1.813-1.581 1.935-2.08l1.606-7.063zm10.22 3.03c.925 1.192 1.947 1.788 3.066 1.788.706 0 1.314-.347 1.825-1.04.523-.694.785-1.424.785-2.19 0-.767-.146-1.278-.438-1.533-.28-.268-.694-.402-1.241-.402-.535 0-1.04.122-1.515.365a4.228 4.228 0 00-1.186.913c-.633.718-1.065 1.417-1.296 2.099zm10.02 2.317v2.008c-1.935 2.13-3.663 3.747-5.184 4.854-1.52 1.108-2.968 1.661-4.343 1.661-2.75 0-4.466-.894-5.147-2.683-.255-.705-.383-1.557-.383-2.555 0-1.776.37-3.467 1.113-5.073.742-1.619 1.807-2.945 3.194-3.979 1.4-1.046 2.95-1.57 4.654-1.57 2.871 0 4.307 1.071 4.307 3.213 0 1.387-.56 2.597-1.68 3.631-1.118 1.022-2.378 1.534-3.777 1.534-.56 0-1.144-.165-1.752-.493-.608-.329-1.126-.821-1.551-1.478-.523 1.095-.785 2.165-.785 3.212 0 2.81 1.022 4.216 3.066 4.216.535 0 1.192-.256 1.971-.767a14.63 14.63 0 002.08-1.606c.609-.572 1.375-1.32 2.3-2.245.925-.937 1.564-1.563 1.916-1.88zm.401 8.523c-1.46 0-2.36-1.028-2.701-3.084a10.704 10.704 0 01-.11-1.551c0-1.327.329-2.665.986-4.015a13.112 13.112 0 012.591-3.614c1.083-1.059 2.373-1.922 3.87-2.592 1.508-.669 3.047-1.003 4.617-1.003.766 0 1.788.2 3.066.602-.012.085-.134.645-.365 1.679a324.858 324.858 0 00-.693 3.139c-.633 2.932-.95 4.751-.95 5.457 0 .706.183 1.058.548 1.058.803 0 2.665-1.545 5.585-4.635v2.044c-1.85 1.91-3.614 3.473-5.293 4.69-1.667 1.217-2.78 1.825-3.34 1.825-.924 0-1.387-.797-1.387-2.39 0-.524.049-1.114.146-1.77a13.772 13.772 0 01-3.066 2.938c-1.156.815-2.324 1.222-3.504 1.222zm1.077-5.657c0 1.825.596 2.737 1.788 2.737.511 0 1.138-.267 1.88-.803a13.704 13.704 0 002.044-1.77l2.099-8.98c-1.314 0-2.585.469-3.814 1.406a10.362 10.362 0 00-2.92 3.45c-.718 1.362-1.077 2.682-1.077 3.96zm25.496-20.733c-.852 0-1.685 1.186-2.501 3.559-.803 2.372-1.727 6.047-2.774 11.023.913-.937 1.771-2.062 2.574-3.376.803-1.326 1.448-2.61 1.934-3.851 1.034-2.616 1.552-4.496 1.552-5.64 0-1.143-.262-1.715-.785-1.715zm-9.089 26.39c-.426 0-.718-.11-.876-.328a7.061 7.061 0 01-.365-.548 2.187 2.187 0 01-.2-.62 75.54 75.54 0 00-.129-.657 8.279 8.279 0 01-.054-.73 20.21 20.21 0 01-.019-.712v-.712c0-2.348.323-4.946.968-7.793.657-2.847 1.49-5.475 2.5-7.884 1.022-2.41 2.214-4.429 3.577-6.06 1.363-1.63 2.689-2.445 3.979-2.445.791 0 1.411.274 1.861.822.463.535.694 1.338.694 2.409 0 1.058-.164 2.25-.493 3.577a19.564 19.564 0 01-1.241 3.632 36.965 36.965 0 01-1.697 3.212 26.673 26.673 0 01-1.862 2.737c-1.265 1.606-2.251 2.738-2.956 3.395l-.475.474c-.718 1.898-1.077 3.304-1.077 4.216 0 .9.213 1.35.639 1.35.304 0 1.138-.668 2.5-2.007a90.29 90.29 0 003.742-3.887v2.044c-2.093 2.25-3.827 3.881-5.202 4.891-1.362.998-2.634 1.54-3.814 1.624z" fill="#35A1BF"/></svg>