<svg width="85" height="85" fill="none" xmlns="http://www.w3.org/2000/svg"><circle cx="42.5" cy="42.5" r="42" stroke="#E0E0E0"/><circle cx="42.5" cy="42.5" r="30" fill="url(#paint0_linear_159:970)" stroke="#35A1BF"/><g clip-path="url(#clip0_159:970)" fill="#fff"><path d="M54.28 46.826a14.011 14.011 0 002.315-7.73C56.595 31.323 50.272 25 42.5 25s-14.095 6.323-14.095 14.096c0 2.852.852 5.509 2.315 7.73l-5.514 8.041 6.31-1.176L32.69 60l5.2-7.583c1.444.501 2.995.774 4.608.774 1.614 0 3.165-.273 4.61-.774l5.2 7.583 1.176-6.31 6.309 1.177-5.514-8.04zm-20.474 7.9l-.642-3.441-3.441.642 2.322-3.387a14.184 14.184 0 003.918 3.04l-2.157 3.146zm-3.34-15.63c0-6.635 5.399-12.033 12.033-12.033 6.636 0 12.034 5.398 12.034 12.033s-5.398 12.033-12.034 12.033c-6.634 0-12.032-5.398-12.032-12.033zm21.37 12.189l-.643 3.441-2.156-3.145a14.184 14.184 0 003.917-3.041l2.322 3.386-3.44-.641z"/><path d="M39.987 42.191l-3.354-3.353-1.459 1.458 4.813 4.813 9.838-9.838-1.459-1.459-8.38 8.38z"/></g><defs><linearGradient id="paint0_linear_159:970" x1="12" y1="29.561" x2="73" y2="41.576" gradientUnits="userSpaceOnUse"><stop stop-color="#47A4BE"/><stop offset="1" stop-color="#70C2D9"/></linearGradient><clipPath id="clip0_159:970"><path fill="#fff" transform="translate(25 25)" d="M0 0h35v35H0z"/></clipPath></defs></svg>