<svg width="35" height="35" fill="none" xmlns="http://www.w3.org/2000/svg"><circle cx="17.5" cy="17.5" r="17" fill="#fff" stroke="#35A1BF"/><path fill-rule="evenodd" clip-rule="evenodd" d="M14.252 9.384c.892-.041 1.176-.05 3.45-.05 2.272 0 2.557.01 3.448.05.892.04 1.5.182 2.033.388.558.211 1.064.54 1.482.966.426.418.755.923.964 1.482.207.532.349 1.14.39 2.03.041.895.05 1.18.05 3.451 0 2.273-.01 2.558-.05 3.45-.04.89-.183 1.499-.39 2.031a4.105 4.105 0 01-.964 1.483 4.102 4.102 0 01-1.482.964c-.532.207-1.141.349-2.031.39-.893.041-1.178.05-3.45.05-2.274 0-2.558-.01-3.45-.05-.89-.04-1.5-.183-2.032-.39a4.104 4.104 0 01-1.482-.964 4.102 4.102 0 01-.966-1.482c-.206-.532-.347-1.141-.388-2.031-.041-.894-.05-1.178-.05-3.45 0-2.274.01-2.558.05-3.45.04-.891.182-1.5.388-2.032.21-.559.54-1.064.966-1.482a4.102 4.102 0 011.482-.966c.532-.206 1.14-.347 2.03-.388h.002zm6.83 1.506c-.882-.04-1.146-.049-3.38-.049-2.235 0-2.5.009-3.382.049-.816.037-1.259.173-1.554.288a2.6 2.6 0 00-.963.625c-.277.27-.49.6-.625.963-.115.295-.25.738-.288 1.554-.04.882-.049 1.147-.049 3.381 0 2.235.009 2.5.049 3.382.037.816.173 1.259.288 1.554.134.363.348.692.625.962.27.278.6.491.963.625.295.115.738.251 1.554.289.882.04 1.146.048 3.381.048s2.5-.008 3.382-.048c.816-.038 1.259-.174 1.554-.289.39-.152.67-.332.962-.625a2.6 2.6 0 00.625-.962c.115-.295.251-.738.289-1.554.04-.883.048-1.147.048-3.382 0-2.234-.008-2.499-.048-3.381-.038-.816-.174-1.259-.289-1.554a2.598 2.598 0 00-.625-.963 2.597 2.597 0 00-.962-.625c-.295-.115-.738-.25-1.554-.288zm-4.45 9.39a2.791 2.791 0 102.01-5.207 2.791 2.791 0 00-2.01 5.208zm-1.972-5.62a4.301 4.301 0 116.083 6.083 4.301 4.301 0 01-6.083-6.083zm8.296-.62a1.017 1.017 0 10-1.396-1.48 1.017 1.017 0 001.396 1.48z" fill="#35A1BF"/></svg>