<svg width="85" height="85" fill="none" xmlns="http://www.w3.org/2000/svg"><circle cx="42.5" cy="42.5" r="42" stroke="#E0E0E0"/><circle cx="42.5" cy="42.5" r="30.5" fill="url(#paint0_linear_142:687)"/><path d="M41.64 38.367c.737.775 1.72 1.291 2.704 1.55 1.476.516 2.705 1.291 3.935 2.583C49.509 43.533 50 45.342 50 46.892c0 1.808-.738 3.875-1.967 5.166-.984 1.034-2.213 1.809-3.689 2.067V58H41.64v-3.358c-1.475 0-2.95-.775-4.18-1.55A11.968 11.968 0 0135 50.508l2.459-2.841a7.683 7.683 0 001.967 2.066c.738.775 1.967 1.034 2.951 1.034.738 0 1.721-.259 2.46-1.034.49-.775.737-1.55.737-2.325 0-.775-.246-1.55-.738-2.066-.738-.517-1.721-1.034-2.459-1.292-1.475-.775-3.197-1.55-4.426-2.842-.984-1.033-1.476-2.583-1.476-4.133-.245-1.55.492-3.1 1.476-4.392.983-1.033 2.213-1.808 3.442-2.066V27h2.951v3.617c.984 0 1.968.258 2.705.775.738.516 1.476 1.033 2.213 1.808l-2.213 3.1c-.737-1.033-1.967-1.808-3.442-1.808-.738-.259-1.476.258-2.214.775-.491.258-.737 1.033-.737 1.55 0 .516.246 1.291.983 1.55z" fill="#fff"/><defs><linearGradient id="paint0_linear_142:687" x1="12" y1="29.561" x2="73" y2="41.576" gradientUnits="userSpaceOnUse"><stop stop-color="#47A4BE"/><stop offset="1" stop-color="#70C2D9"/></linearGradient></defs></svg>