<svg width="33" height="33" fill="none" xmlns="http://www.w3.org/2000/svg"><path d="M17 12.737v2.558A1.705 1.705 0 0115.295 17h-.162a16.875 16.875 0 01-7.358-2.617 16.643 16.643 0 01-5.116-5.116A16.897 16.897 0 01.008 1.86 1.705 1.705 0 011.55 0h2.711a1.705 1.705 0 011.705 1.466c.11.819.31 1.622.597 2.396a1.705 1.705 0 01-.384 1.799L5.098 6.744a13.641 13.641 0 005.115 5.115l1.083-1.083a1.705 1.705 0 011.8-.383c.773.287 1.576.487 2.395.596a1.705 1.705 0 011.466 1.731l.043.017z" fill="#fff"/></svg>