<svg width="35" height="35" fill="none" xmlns="http://www.w3.org/2000/svg"><path d="M34.5 17.5c0 9.39-7.583 17-16.933 17S.634 26.89.634 17.5 8.217.5 17.567.5 34.5 8.11 34.5 17.5z" fill="#fff" stroke="#35A1BF"/><path fill-rule="evenodd" clip-rule="evenodd" d="M22.493 19.186c-.23-.116-1.363-.674-1.573-.752-.211-.077-.365-.115-.519.117-.153.23-.594.75-.728.905-.135.155-.269.173-.499.058-.23-.116-.972-.36-1.852-1.147-.684-.613-1.146-1.37-1.28-1.601-.135-.231-.015-.357.1-.472.104-.103.23-.27.346-.404.115-.136.153-.232.23-.387.077-.154.039-.288-.02-.404-.057-.116-.517-1.254-.71-1.717-.186-.45-.376-.389-.517-.396a9.953 9.953 0 00-.441-.008.843.843 0 00-.614.29c-.212.23-.806.79-.806 1.927s.825 2.236.94 2.391c.115.154 1.623 2.489 3.933 3.49.55.238.979.38 1.312.486a3.132 3.132 0 001.45.092c.442-.066 1.363-.56 1.555-1.1.191-.539.191-1.002.134-1.098-.057-.096-.21-.154-.442-.27h.001zm-4.2 5.758h-.004a7.624 7.624 0 01-3.899-1.072l-.279-.166-2.899.764.774-2.838-.182-.29a7.692 7.692 0 01-1.17-4.092c0-4.239 3.436-7.687 7.661-7.687a7.59 7.59 0 015.415 2.254 7.643 7.643 0 012.24 5.439c-.001 4.238-3.436 7.688-7.658 7.688zm6.517-14.231A9.152 9.152 0 0018.292 8c-5.079 0-9.213 4.15-9.215 9.25 0 1.63.424 3.22 1.23 4.623L9 26.667l4.884-1.287a9.18 9.18 0 004.404 1.127h.004c5.078 0 9.213-4.15 9.214-9.25a9.224 9.224 0 00-2.696-6.544z" fill="#35A1BF"/></svg>