<svg width="35" height="35" fill="none" xmlns="http://www.w3.org/2000/svg"><path d="M34.366 17.5c0 9.39-7.583 17-16.933 17S.5 26.89.5 17.5 8.083.5 17.433.5s16.933 7.61 16.933 17z" fill="#fff" stroke="#35A1BF"/><path d="M16.828 8.361c-1.38 0-4.794.146-6.61 1.896-1.307 1.24-1.816 3.136-1.889 5.396-.145 3.573.654 5.833 1.962 7 .29.219 1.017.802 2.397 1.24v1.822s0 .73.436.875c.072 0 .145.073.217.073.436 0 .8-.51 1.308-1.02.436-.51.799-.875 1.017-1.24h1.598c1.38 0 4.794-.146 6.61-1.896 1.308-1.312 1.816-3.208 1.816-5.614.073-.365.073-.803.073-1.24-.073-2.698-.872-4.52-1.962-5.542-.435-.364-2.324-1.75-6.392-1.75h-.58zm-.145 1.386h.654c3.85 0 5.302 1.24 5.448 1.385.871.73 1.38 2.334 1.452 4.448v.292c.073.437.073.802.073 1.02-.073 2.188-.508 3.646-1.38 4.594-1.526 1.386-4.722 1.459-5.593 1.459h-1.38l-1.163 1.312-.726.802-.145.219c-.146.146-.364.438-.509.51v-3.28c-1.453-.365-2.034-.876-2.179-1.022-1.017-.875-1.598-2.99-1.453-5.833v-.73c.146-1.75.581-2.916 1.308-3.718 1.525-1.385 4.721-1.458 5.593-1.458zm-.073 1.604a.256.256 0 000 .51c2.688 0 5.012 1.823 5.012 5.25 0 .365.509.365.509 0 0-3.718-2.47-5.833-5.52-5.76zm-2.878.674a.634.634 0 00-.462.127c-.727.365-1.454 1.096-1.236 1.898 0 0 .145.655.944 2.04.436.657.8 1.24 1.162 1.678.364.51.945 1.093 1.526 1.53 1.162.949 2.978 1.897 3.777 2.115.726.22 1.526-.51 1.889-1.24a.697.697 0 00-.218-.874c-.436-.438-1.162-.948-1.67-1.24-.364-.219-.8-.073-.945.146l-.363.438c-.146.218-.509.218-.509.218-2.397-.656-3.05-3.135-3.05-3.135s0-.292.217-.51l.436-.365c.218-.146.363-.583.145-.948-.145-.219-.363-.656-.58-.875a21.57 21.57 0 00-.655-.802.697.697 0 00-.408-.2zm3.387.784c-.363-.073-.436.51-.073.51 2.034.146 3.196 1.532 3.123 3.282-.072.364.509.364.509 0 .073-2.042-1.235-3.719-3.56-3.792zm.218 1.386c-.364-.073-.364.51 0 .51.871 0 1.307.51 1.307 1.385.073.365.581.365.581 0-.072-1.166-.726-1.895-1.888-1.895z" fill="#35A1BF"/></svg>