<svg width="35" height="35" fill="none" xmlns="http://www.w3.org/2000/svg"><circle cx="17.5" cy="17.5" r="17" fill="#fff" stroke="#35A1BF"/><path fill-rule="evenodd" clip-rule="evenodd" d="M25.686 13.883c.115-.38 0-.66-.555-.66h-1.83c-.466 0-.68.241-.797.508 0 0-.931 2.229-2.25 3.676-.427.42-.62.553-.853.553-.117 0-.292-.133-.292-.514v-3.563c0-.457-.128-.66-.516-.66h-2.878c-.291 0-.466.211-.466.413 0 .433.66.533.727 1.752v2.649c0 .58-.107.686-.34.686-.62 0-2.13-2.24-3.026-4.801-.173-.499-.35-.7-.817-.7H9.96c-.523 0-.627.242-.627.51 0 .475.62 2.837 2.89 5.962 1.513 2.134 3.643 3.29 5.584 3.29 1.164 0 1.308-.256 1.308-.699v-1.613c0-.514.11-.616.479-.616.271 0 .737.134 1.823 1.162 1.241 1.22 1.446 1.767 2.144 1.767h1.83c.524 0 .786-.257.635-.765-.166-.505-.758-1.237-1.544-2.107-.427-.495-1.067-1.029-1.262-1.296-.271-.342-.194-.495 0-.8 0 0 2.232-3.086 2.464-4.134z" fill="#35A1BF"/></svg>